<!DOCTYPE svg PUBLIC "-//W3C//DTD SVG 1.1//EN" "http://www.w3.org/Graphics/SVG/1.1/DTD/svg11.dtd">
<!-- Uploaded to: SVG Repo, www.svgrepo.com, Transformed by: SVG Repo Mixer Tools -->
<svg fill="#ffffff" width="800px" height="800px" viewBox="0 0 24 24" xmlns="http://www.w3.org/2000/svg" enable-background="new 0 0 24 24" stroke="#ffffff">
<g id="SVGRepo_bgCarrier" stroke-width="0"/>
<g id="SVGRepo_tracerCarrier" stroke-linecap="round" stroke-linejoin="round"/>
<g id="SVGRepo_iconCarrier">
<path d="M2,19c0,1.7,1.3,3,3,3h14c1.7,0,3-1.3,3-3v-8H2V19z M19,4h-2V3c0-0.6-0.4-1-1-1s-1,0.4-1,1v1H9V3c0-0.6-0.4-1-1-1S7,2.4,7,3v1H5C3.3,4,2,5.3,2,7v2h20V7C22,5.3,20.7,4,19,4z"/>
</g>
</svg>